HIERARCHY
ROOT Hips
{
	OFFSET -0.179506 -22.333345 2.821913
	CHANNELS 6 Xposition Yposition Zposition Zrotation Yrotation Xrotation 
	JOINT LeftUpLeg
	{
		OFFSET 6.951974 -9.140623 -0.681533
		CHANNELS 3 Zrotation Yrotation Xrotation
		JOINT LeftLeg
		{
			OFFSET 3.427654 -37.519855 -0.449580
			CHANNELS 3 Zrotation Yrotation Xrotation
			JOINT LeftFoot
			{
				OFFSET -1.359570 -39.796059 -4.369333
				CHANNELS 3 Zrotation Yrotation Xrotation
				JOINT LeftToe
				{
					OFFSET 2.635814 -5.579078 11.928840
					CHANNELS 3 Zrotation Yrotation Xrotation
					End Site
					{
						OFFSET 0.000000 0.000000 0.000000
					}
				}
			}
		}
	}
	JOINT RightUpLeg
	{
		OFFSET -6.767048 -9.052170 -0.431982
		CHANNELS 3 Zrotation Yrotation Xrotation
		JOINT RightLeg
		{
			OFFSET -3.829005 -38.256897 -0.885003
			CHANNELS 3 Zrotation Yrotation Xrotation
			JOINT RightFoot
			{
				OFFSET 1.577377 -39.841461 -4.231180
				CHANNELS 3 Zrotation Yrotation Xrotation
				JOINT RightToe
				{
					OFFSET -2.537174 -4.814398 12.334795
					CHANNELS 3 Zrotation Yrotation Xrotation
					End Site
					{
						OFFSET 0.000000 0.000000 0.000000
					}
				}
			}
		}
	}
	JOINT Spine
	{
		OFFSET -0.253288 10.896323 -2.669631
		CHANNELS 3 Zrotation Yrotation Xrotation
		JOINT Spine1
		{
			OFFSET 0.548704 13.518043 0.109247
			CHANNELS 3 Zrotation Yrotation Xrotation
			JOINT Spine2
			{
				OFFSET 0.145701 5.292222 2.542457
				CHANNELS 3 Zrotation Yrotation Xrotation
				JOINT Neck
				{
					OFFSET -0.277840 21.387037 -4.285703
					CHANNELS 3 Zrotation Yrotation Xrotation
					JOINT Head
					{
						OFFSET 0.515184 6.496960 5.134897
						CHANNELS 3 Zrotation Yrotation Xrotation
						End Site
						{
							OFFSET 0.000000 0.000000 0.000000
						}
					}
				}
				JOINT LeftShoulder
				{
					OFFSET 7.884473 12.174932 -3.408961
					CHANNELS 3 Zrotation Yrotation Xrotation
					JOINT LeftArm
					{
						OFFSET 9.097692 3.046888 -0.886815
						CHANNELS 3 Zrotation Yrotation Xrotation
						JOINT LeftForeArm
						{
							OFFSET 25.961220 -1.277207 -2.745643
							CHANNELS 3 Zrotation Yrotation Xrotation
							JOINT LeftHand
							{
								OFFSET 24.923361 0.898606 -0.117091
								CHANNELS 3 Zrotation Yrotation Xrotation
								End Site
								{
									OFFSET 0.000000 0.000000 0.000000
								}
							}
						}
					}
				}
				JOINT RightShoulder
				{
					OFFSET -8.175920 11.883285 -3.861528
					CHANNELS 3 Zrotation Yrotation Xrotation
					JOINT RightArm
					{
						OFFSET -9.601238 3.255117 -0.914307
						CHANNELS 3 Zrotation Yrotation Xrotation
						JOINT RightForeArm
						{
							OFFSET -25.374195 -1.332924 -2.140099
							CHANNELS 3 Zrotation Yrotation Xrotation
							JOINT RightHand
							{
								OFFSET -25.529810 0.777228 -0.555919
								CHANNELS 3 Zrotation Yrotation Xrotation
								End Site
								{
									OFFSET 0.000000 0.000000 0.000000
								}
							}
						}
					}
				}
			}
		}
	}
}
MOTION
Frames: 13
Frame Time: 0.033333
-21.532080 7.407629 86.384811 121.747253 -0.213828 85.947528 18.557546 13.044953 21.473211 -5.532908 0.501678 4.937994 -3.410232 12.072933 -21.044502 nan nan nan -7.092717 -6.275709 -28.725565 2.676353 -13.474192 19.435419 4.514984 -7.712758 -14.111338 nan nan nan -2.902666 -6.838888 15.795898 2.345761 -3.178983 2.566833 1.556484 -4.594876 -0.296845 3.721818 -2.226684 -1.597324 2.287775 -8.846848 11.078228 -26.681656 -0.696397 6.793133 -51.473101 -11.599763 8.613548 5.691226 -31.626568 3.507219 3.315172 -15.091715 -12.088327 27.388545 0.037369 4.366209 52.592800 -2.375264 11.000151 -11.395975 25.448174 -0.241177 8.814145 9.980750 3.132236 
-20.815029 7.743440 86.052475 121.517156 -0.260703 86.002503 18.741064 13.249389 21.877921 -5.507656 0.589550 5.333374 -3.355135 12.254301 -21.494255 nan nan nan -7.277307 -6.400417 -29.428552 2.699773 -13.051475 19.751000 4.372258 -7.686638 -13.890350 nan nan nan -2.635811 -7.109883 16.044826 2.358233 -3.223310 2.333735 1.433122 -4.687384 -0.186091 3.597697 -2.056004 -2.013971 2.179631 -8.732959 11.282162 -26.679122 -0.821922 6.717581 -51.389505 -11.815955 8.492599 5.606359 -31.840237 3.537343 3.160457 -14.930976 -11.975388 27.495522 -0.050102 4.251654 52.449805 -2.382977 10.808800 -11.648816 25.251470 -0.691963 9.023417 9.624157 3.457791 
-20.079529 8.109284 85.727905 121.245540 -0.272719 85.927727 18.917214 13.330135 22.575137 -5.403318 0.651390 5.453055 -3.268834 12.557604 -21.895343 nan nan nan -7.528566 -6.357193 -29.963694 2.919090 -12.595068 20.344846 4.774604 -7.695155 -13.565386 nan nan nan -2.383250 -7.442385 16.275328 2.406564 -3.274942 2.376518 1.344770 -4.674826 -0.060794 3.421866 -1.863772 -2.457555 2.042942 -8.497940 11.342028 -26.753196 -1.027100 6.580730 -51.352416 -12.055336 8.446791 5.558442 -31.971558 3.394388 3.400572 -14.951575 -11.877691 27.580694 0.068409 4.188531 52.277463 -2.399780 10.632176 -11.984294 25.107791 -1.290948 9.095745 9.444851 4.117221 
-19.335304 8.477870 85.413223 120.967865 -0.297822 85.763673 19.113084 13.383804 23.385780 -5.271519 0.650386 5.585375 -3.271500 12.821852 -22.283401 nan nan nan -7.818811 -6.249796 -30.510185 3.111742 -12.206654 21.517977 5.474311 -7.615049 -13.162254 nan nan nan -2.177163 -7.791548 16.591820 2.450148 -3.257326 2.449196 1.267465 -4.666473 0.090765 3.321160 -1.683319 -2.935347 1.852587 -8.242172 11.314083 -26.792433 -1.206456 6.367438 -51.386373 -12.415501 8.476165 5.420163 -31.887092 3.244474 3.952003 -15.248860 -11.913249 27.603861 0.158833 4.006612 52.100706 -2.334132 10.579341 -12.058142 24.833758 -1.844149 8.698392 9.509012 4.635302 
-18.549494 8.830335 85.120361 120.710164 -0.370296 85.569017 19.376077 13.439443 24.221794 -5.191327 0.443784 5.812609 -3.466354 12.985338 -22.524025 nan nan nan -8.088584 -6.200960 -31.200713 3.152147 -11.825309 23.507329 5.465039 -7.639785 -12.625308 nan nan nan -2.023255 -8.110351 16.935949 2.469490 -3.139527 2.531083 1.178399 -4.739503 0.175999 3.230220 -1.556914 -3.541856 1.617148 -8.086329 11.539229 -26.915456 -1.400018 6.249083 -51.224578 -12.759397 8.402928 5.326729 -31.832586 3.106403 4.251057 -15.384521 -11.911360 27.781732 0.180690 3.819156 51.816299 -2.317003 10.508841 -12.113985 24.597267 -2.424268 8.344399 9.752059 4.801615 
-17.693964 9.147122 84.859871 120.397083 -0.452532 85.331165 19.677398 13.396851 25.202740 -5.154742 0.072774 5.970386 -3.830668 13.229253 -22.598658 nan nan nan -8.317701 -6.009409 -31.892520 3.175248 -11.556811 26.036190 5.090637 -7.739722 -12.097577 nan nan nan -1.980282 -8.438999 17.333071 2.518140 -2.954955 2.653463 1.119720 -4.759907 0.132890 3.135540 -1.438639 -4.066317 1.338122 -8.011838 11.795862 -27.199472 -1.622179 6.189294 -50.822393 -12.880751 8.252014 5.479574 -32.100732 3.035934 3.644460 -15.071745 -11.496844 28.084564 0.280646 3.675866 51.454625 -2.546826 10.434291 -12.335403 24.551446 -2.942910 8.494829 9.778858 4.960035 
-16.794592 9.423680 84.625389 120.085176 -0.501363 85.089728 20.059277 13.257484 26.215464 -5.195083 -0.417966 6.121537 -4.070302 13.453877 -22.586652 nan nan nan -8.545983 -5.553374 -32.519738 3.241646 -11.546910 28.783420 5.136641 -7.866233 -12.091394 nan nan nan -2.016398 -8.799466 17.787477 2.615846 -2.723899 2.728795 1.098682 -4.796214 0.061924 3.172517 -1.217094 -4.503121 0.950081 -7.991962 12.050388 -27.480768 -1.761203 6.142199 -50.379673 -12.856971 8.082944 5.531803 -32.687081 3.548496 2.537639 -14.614842 -10.192061 28.391378 0.387515 3.486560 51.075864 -2.815684 10.320789 -12.456791 24.533773 -3.149527 8.699044 9.559931 5.366923 
-15.858884 9.694638 84.402267 119.847246 -0.523973 84.891143 20.463057 13.042098 27.124690 -5.217903 -0.895243 6.317400 -4.270792 13.655379 -22.609387 nan nan nan -8.778640 -5.008667 -33.128552 3.220929 -11.886594 31.634167 5.355754 -7.950521 -12.804177 nan nan nan -2.041072 -9.161544 18.097673 2.745316 -2.534988 2.800588 1.106106 -4.919613 0.058600 3.095436 -0.936556 -4.765973 0.583396 -7.902396 12.190786 -27.613976 -1.855837 6.114842 -50.305556 -12.829456 8.078345 5.423268 -32.801566 3.584173 3.010174 -14.436007 -9.866629 28.635999 0.511679 3.403646 50.726921 -2.887242 10.329966 -12.515010 24.365965 -3.266612 8.322142 9.424634 5.852167 
-14.877497 9.949540 84.213600 119.654000 -0.523924 84.730990 20.853891 12.738128 27.903654 -5.131119 -1.402755 6.645862 -4.865965 13.765387 -22.650772 nan nan nan -9.003012 -4.397445 -33.587535 3.008285 -12.556214 34.270667 5.311780 -7.793297 -13.871806 nan nan nan -2.084762 -9.572732 18.284271 2.881240 -2.416059 2.982199 1.112654 -4.999549 -0.015484 3.074554 -0.502090 -4.833714 0.273709 -7.846602 12.181596 -27.831829 -1.938880 6.000640 -50.156661 -12.808378 8.085603 5.595376 -32.731655 3.383233 2.700458 -14.173306 -9.826891 28.876938 0.631394 3.427403 50.443457 -2.836725 10.299501 -12.629380 24.130161 -3.299970 8.322565 9.306171 6.137219 
-13.869730 10.157867 84.059074 119.502459 -0.502026 84.730737 21.221796 12.375284 28.390063 -5.031165 -1.860975 7.204492 -5.513301 13.726247 -22.538281 nan nan nan -9.201750 -3.654618 -34.049478 2.621998 -13.439896 36.552301 5.030171 -7.583573 -14.872217 nan nan nan -2.092278 -10.046869 18.355832 3.002928 -2.350669 3.081316 1.078597 -4.987580 -0.141218 3.142098 -0.093310 -4.760319 0.064459 -7.667576 12.038345 -28.037042 -2.011364 5.863103 -49.902167 -12.670996 8.305422 5.611697 -32.547097 3.115470 2.733282 -14.103726 -10.271030 29.118973 0.678755 3.395288 50.212327 -2.862085 10.379384 -12.659142 23.875469 -3.387648 8.142171 9.349055 5.870385 
-12.848949 10.332577 83.957260 119.382268 -0.472761 84.811534 21.540553 11.937239 28.683777 -5.005884 -2.232489 7.870772 -6.118827 13.707157 -22.204400 nan nan nan -9.432210 -2.822126 -34.408371 2.356393 -14.311522 38.396831 4.839089 -7.338742 -15.454263 nan nan nan -2.054132 -10.520399 18.420238 3.124157 -2.294158 3.053339 1.030567 -4.985373 -0.285125 3.136521 0.315189 -4.647089 -0.098279 -7.421250 11.944105 -28.327114 -2.058924 5.857964 -49.537866 -12.596474 8.456288 5.485316 -32.356021 2.539939 3.176004 -14.319378 -10.917028 29.350393 0.704445 3.377037 49.951246 -2.895851 10.448823 -12.472630 23.613844 -3.498828 7.518780 9.530577 5.268188 
-11.798329 10.463708 83.899033 119.184980 -0.411148 85.012291 21.826179 11.433392 28.773723 -5.022345 -2.459190 8.618134 -6.758410 13.699784 -21.699533 nan nan nan -9.557165 -2.033284 -34.715953 2.272426 -15.001162 39.802245 4.790204 -6.968525 -15.351104 nan nan nan -1.933730 -10.878502 18.340332 3.267907 -2.284924 3.077458 0.965666 -4.993301 -0.509073 2.982535 0.621094 -4.559603 -0.237958 -7.344986 11.909054 -28.677660 -2.073513 5.982171 -49.204048 -12.587678 8.473444 5.611334 -32.172864 2.060611 3.243222 -14.747426 -11.081545 29.646246 0.713124 3.478295 49.650553 -2.909263 10.430255 -12.299556 23.433202 -3.372049 6.748071 9.910917 4.710362 
-10.695612 10.551570 83.866631 118.937773 -0.338992 85.327060 22.188913 11.081106 28.620714 -5.019844 -2.785723 9.665519 -7.129025 13.650542 -21.145579 nan nan nan -9.457935 -1.430511 -35.014522 2.341832 -15.368077 40.818039 4.664405 -6.689951 -14.851263 nan nan nan -1.884228 -11.159750 18.094797 3.473594 -2.321430 3.173901 0.964133 -4.976409 -0.820368 2.852419 0.771675 -4.428370 -0.403190 -7.196267 11.942351 -29.017576 -1.987344 6.079529 -48.909900 -12.475863 8.426926 5.544033 -32.039234 2.308317 2.928347 -14.970381 -10.513408 29.911377 0.662657 3.626331 49.376965 -2.897874 10.351516 -12.233824 23.369008 -3.047672 6.622927 9.995670 4.440085 
